<?xml version="1.0" encoding="UTF-8" standalone="no"?>
<svg
   width="42.658501"
   height="40.612579"
   viewBox="0 0 42.658501 40.612579"
   fill="none"
   version="1.1"
   id="svg6"
   sodipodi:docname="output.svg"
   xmlns:inkscape="http://www.inkscape.org/namespaces/inkscape"
   xmlns:sodipodi="http://sodipodi.sourceforge.net/DTD/sodipodi-0.dtd"
   xmlns="http://www.w3.org/2000/svg"
   xmlns:svg="http://www.w3.org/2000/svg">
  <defs
     id="defs10" />
  <sodipodi:namedview
     id="namedview8"
     pagecolor="#ffffff"
     bordercolor="#666666"
     borderopacity="1.0"
     inkscape:pageshadow="2"
     inkscape:pageopacity="0.0"
     inkscape:pagecheckerboard="0" />
  <path
     d="M 42.6585,20.306381 C 42.6585,9.075271 33.1261,0 21.3292,0 9.53242,0 0,9.075271 0,20.306381 c 0,10.1531 7.81585,18.533 18.0057,20.0629 v -14.2214 h -5.4054 v -5.8415 h 5.4054 v -4.4855 c 0,-5.0766 3.1774,-7.89306 8.0715,-7.89306 2.3374,0 4.7845,0.38248 4.7845,0.38248 v 5.00708 H 28.159 c -2.6662,0 -3.4697,1.5647 -3.4697,3.1641 v 3.8249 h 5.9167 l -0.9496,5.8763 h -4.9671 v 14.1866 c 10.1898,-1.5299 17.9692,-9.9445 17.9692,-20.0629 z"
     fill="#ffffff"
     id="path2" />
  <path
     d="m 29.6567,26.147781 0.9496,-5.8763 h -5.9167 v -3.8248 c 0,-1.5995 0.84,-3.1642 3.4696,-3.1642 h 2.7027 v -4.97226 c 0,0 -2.447,-0.38249 -4.7845,-0.38249 -4.894,0 -8.0715,2.81645 -8.0715,7.89305 v 4.4855 h -5.4053 v 5.8763 h 5.4053 v 14.1866 c 1.0957,0.1739 2.1914,0.2434 3.3236,0.2434 1.1322,0 2.2644,-0.0695 3.3236,-0.2434 v -14.2214 z"
     fill="#0089fb"
     id="path4" />
</svg>
