<svg width="43" height="41" viewBox="0 0 43 41" fill="none" xmlns="http://www.w3.org/2000/svg">
<path d="M42.6585 20.6931C42.6585 9.46199 33.1261 0.386719 21.3292 0.386719C9.53242 0.386719 0 9.46199 0 20.6931C0 30.8462 7.81585 39.2261 18.0057 40.756V26.5346H12.6003V20.6931H18.0057V16.2076C18.0057 11.131 21.1831 8.31454 26.0772 8.31454C28.4146 8.31454 30.8617 8.69702 30.8617 8.69702V13.7041H28.159C25.4928 13.7041 24.6893 15.2688 24.6893 16.8682V20.6931H30.606L29.6564 26.5694H24.6893V40.756C34.8791 39.2261 42.6585 30.8115 42.6585 20.6931Z" fill="white"/>
<path d="M29.6567 26.5345L30.6063 20.6582H24.6896V16.8334C24.6896 15.2339 25.5296 13.6692 28.1592 13.6692H30.8619V8.69694C30.8619 8.69694 28.4149 8.31445 26.0774 8.31445C21.1834 8.31445 18.0059 11.1309 18.0059 16.2075V20.693H12.6006V26.5693H18.0059V40.7559C19.1016 40.9298 20.1973 40.9993 21.3295 40.9993C22.4617 40.9993 23.5939 40.9298 24.6531 40.7559V26.5345H29.6567Z" fill="#0089FB"/>
</svg>
