<svg width="44" height="41" viewBox="0 0 44 41" fill="none" xmlns="http://www.w3.org/2000/svg">
<path d="M21.9861 40.61C33.7649 40.61 43.3135 31.5192 43.3135 20.305C43.3135 9.09087 33.7649 0 21.9861 0C10.2073 0 0.658691 9.09087 0.658691 20.305C0.658691 31.5192 10.2073 40.61 21.9861 40.61Z" fill="white"/>
<path d="M28.5955 12.6211C27.7921 12.6211 27.1348 13.2469 27.1348 14.0118C27.1348 14.7768 27.7921 15.4026 28.5955 15.4026C29.399 15.4026 30.0563 14.7768 30.0563 14.0118C30.0928 13.2469 29.4355 12.6211 28.5955 12.6211Z" fill="#0089FB"/>
<path d="M22.0956 14.4277C18.6993 14.4277 15.9238 17.0702 15.9238 20.3037C15.9238 23.5372 18.6993 26.1796 22.0956 26.1796C25.4919 26.1796 28.2674 23.5372 28.2674 20.3037C28.2674 17.0702 25.4919 14.4277 22.0956 14.4277ZM22.0956 24.0587C19.9045 24.0587 18.1515 22.3898 18.1515 20.3037C18.1515 18.2175 19.9045 16.5486 22.0956 16.5486C24.2868 16.5486 26.0397 18.2175 26.0397 20.3037C26.0397 22.3898 24.2868 24.0587 22.0956 24.0587Z" fill="#0089FB"/>
<path d="M26.9889 32.1956H17.0191C12.8924 32.1956 9.49609 28.9968 9.49609 25.0332V15.5413C9.49609 11.6124 12.8559 8.37891 17.0191 8.37891H26.9889C31.1156 8.37891 34.5119 11.5776 34.5119 15.5413V25.0332C34.5119 28.9968 31.1156 32.1956 26.9889 32.1956ZM16.9826 10.6389C14.1341 10.6389 11.8333 12.8293 11.8333 15.5413V25.0332C11.8333 27.7452 14.1341 29.9356 16.9826 29.9356H26.9524C29.8009 29.9356 32.1017 27.7452 32.1017 25.0332V15.5413C32.1017 12.8293 29.8009 10.6389 26.9524 10.6389H16.9826Z" fill="#0089FB"/>
</svg>
