<?xml version="1.0" encoding="UTF-8" standalone="no"?>
<svg
   width="42.654808"
   height="40.610001"
   viewBox="0 0 42.654808 40.610001"
   fill="none"
   version="1.1"
   id="svg10"
   sodipodi:docname="output.svg"
   xmlns:inkscape="http://www.inkscape.org/namespaces/inkscape"
   xmlns:sodipodi="http://sodipodi.sourceforge.net/DTD/sodipodi-0.dtd"
   xmlns="http://www.w3.org/2000/svg"
   xmlns:svg="http://www.w3.org/2000/svg">
  <defs
     id="defs14" />
  <sodipodi:namedview
     id="namedview12"
     pagecolor="#ffffff"
     bordercolor="#666666"
     borderopacity="1.0"
     inkscape:pageshadow="2"
     inkscape:pageopacity="0.0"
     inkscape:pagecheckerboard="0" />
  <path
     d="m 21.327409,40.61 c 11.7788,0 21.3274,-9.0908 21.3274,-20.305 C 42.654809,9.09087 33.106209,0 21.327409,0 9.548609,0 0,9.09087 0,20.305 0,31.5192 9.548609,40.61 21.327409,40.61 Z"
     fill="#ffffff"
     id="path2" />
  <path
     d="m 27.936809,12.6211 c -0.8034,0 -1.4607,0.6258 -1.4607,1.3907 0,0.765 0.6573,1.3908 1.4607,1.3908 0.8035,0 1.4608,-0.6258 1.4608,-1.3908 0.0365,-0.7649 -0.6208,-1.3907 -1.4608,-1.3907 z"
     fill="#0089fb"
     id="path4" />
  <path
     d="m 21.436909,14.4277 c -3.3963,0 -6.1718,2.6425 -6.1718,5.876 0,3.2335 2.7755,5.8759 6.1718,5.8759 3.3963,0 6.1718,-2.6424 6.1718,-5.8759 0,-3.2335 -2.7755,-5.876 -6.1718,-5.876 z m 0,9.631 c -2.1911,0 -3.9441,-1.6689 -3.9441,-3.755 0,-2.0862 1.753,-3.7551 3.9441,-3.7551 2.1912,0 3.9441,1.6689 3.9441,3.7551 0,2.0861 -1.7529,3.755 -3.9441,3.755 z"
     fill="#0089fb"
     id="path6" />
  <path
     d="m 26.330209,32.1956 h -9.9698 c -4.1267,0 -7.52301,-3.1988 -7.52301,-7.1624 v -9.4919 c 0,-3.9289 3.35981,-7.16239 7.52301,-7.16239 h 9.9698 c 4.1267,0 7.523,3.19869 7.523,7.16239 v 9.4919 c 0,3.9636 -3.3963,7.1624 -7.523,7.1624 z m -10.0063,-21.5567 c -2.8485,0 -5.1493,2.1904 -5.1493,4.9024 v 9.4919 c 0,2.712 2.3008,4.9024 5.1493,4.9024 h 9.9698 c 2.8485,0 5.1493,-2.1904 5.1493,-4.9024 v -9.4919 c 0,-2.712 -2.3008,-4.9024 -5.1493,-4.9024 z"
     fill="#0089fb"
     id="path8" />
</svg>
