<svg width="44" height="41" viewBox="0 0 44 41" fill="none" xmlns="http://www.w3.org/2000/svg">
<path d="M22.2961 40.61C34.0749 40.61 43.6235 31.5192 43.6235 20.305C43.6235 9.09087 34.0749 0 22.2961 0C10.5174 0 0.96875 9.09087 0.96875 20.305C0.96875 31.5192 10.5174 40.61 22.2961 40.61Z" fill="white"/>
<path d="M14.1903 6.98828C15.6511 6.98828 16.8197 8.10089 16.8197 9.49164C16.8197 10.8824 15.6146 11.995 14.1538 11.995C12.693 11.995 11.5244 10.8824 11.5244 9.49164C11.5244 8.13565 12.7296 6.98828 14.1903 6.98828Z" fill="#0089FB"/>
<path d="M16.4177 13.9072L16.3081 27.8495H11.7432L11.8527 13.9072H16.4177Z" fill="#0089FB"/>
<path d="M27.9944 13.5947C32.5958 13.5947 33.4358 16.4805 33.3993 20.2356L33.3262 27.8847H28.7978L28.8343 21.1048C28.8343 19.4707 28.8343 17.3845 26.4971 17.3845C24.1233 17.3845 23.7581 19.1577 23.7581 20.9657L23.6851 27.85H19.1201L19.2297 13.9076H23.5755V15.8199H23.6485C24.3059 14.7421 25.7667 13.5947 27.9944 13.5947Z" fill="#0089FB"/>
</svg>
