<?xml version="1.0" encoding="UTF-8" standalone="no"?>
<svg
   width="42.654751"
   height="40.610001"
   viewBox="0 0 42.654751 40.610001"
   fill="none"
   version="1.1"
   id="svg10"
   sodipodi:docname="output.svg"
   xmlns:inkscape="http://www.inkscape.org/namespaces/inkscape"
   xmlns:sodipodi="http://sodipodi.sourceforge.net/DTD/sodipodi-0.dtd"
   xmlns="http://www.w3.org/2000/svg"
   xmlns:svg="http://www.w3.org/2000/svg">
  <defs
     id="defs14" />
  <sodipodi:namedview
     id="namedview12"
     pagecolor="#ffffff"
     bordercolor="#666666"
     borderopacity="1.0"
     inkscape:pageshadow="2"
     inkscape:pageopacity="0.0"
     inkscape:pagecheckerboard="0" />
  <path
     d="m 21.32735,40.61 c 11.7788,0 21.3274,-9.0908 21.3274,-20.305 C 42.65475,9.09087 33.10615,0 21.32735,0 9.54865,0 0,9.09087 0,20.305 0,31.5192 9.54865,40.61 21.32735,40.61 Z"
     fill="#ffffff"
     id="path2" />
  <path
     d="m 13.22155,6.98828 c 1.4608,0 2.6294,1.11261 2.6294,2.50336 0,1.39076 -1.2051,2.50336 -2.6659,2.50336 -1.4608,0 -2.6294,-1.1126 -2.6294,-2.50336 0,-1.35599 1.2052,-2.50336 2.6659,-2.50336 z"
     fill="#0089fb"
     id="path4" />
  <path
     d="m 15.44895,13.9072 -0.1096,13.9423 h -4.5649 l 0.1095,-13.9423 z"
     fill="#0089fb"
     id="path6" />
  <path
     d="m 27.02565,13.5947 c 4.6014,0 5.4414,2.8858 5.4049,6.6409 l -0.0731,7.6491 h -4.5284 l 0.0365,-6.7799 c 0,-1.6341 0,-3.7203 -2.3372,-3.7203 -2.3738,0 -2.739,1.7732 -2.739,3.5812 l -0.073,6.8843 h -4.565 l 0.1096,-13.9424 h 4.3458 v 1.9123 h 0.073 c 0.6574,-1.0778 2.1182,-2.2252 4.3459,-2.2252 z"
     fill="#0089fb"
     id="path8" />
</svg>
