<svg width="222" height="220" viewBox="0 0 222 220" fill="none" xmlns="http://www.w3.org/2000/svg">
<path d="M221.518 0.219727H0.23077V219.531H221.518V0.219727Z" fill="white"/>
<path d="M44.2031 47.7275L95.9376 116.284L43.876 172.024H55.592L101.172 123.222L137.999 172.024H177.873L123.227 99.6118L171.684 47.73H159.968L117.993 92.6718L84.0766 47.7275H44.2031ZM61.434 56.2807H79.7517L160.64 163.468H142.322L61.434 56.2807Z" fill="#0089FB"/>
<path d="M44.2031 47.7275L95.9376 116.284L43.876 172.024H55.592L101.172 123.222L137.999 172.024H177.873L123.227 99.6118L171.684 47.73H159.968L117.993 92.6718L84.0766 47.7275H44.2031ZM61.434 56.2807H79.7517L160.64 163.468H142.322L61.434 56.2807Z" fill="#0089FB"/>
</svg>
